<svg width="26" height="26" viewBox="0 0 26 26" fill="none" xmlns="http://www.w3.org/2000/svg">
<path fill-rule="evenodd" clip-rule="evenodd" d="M6.37035 0.830078C7.13486 0.830078 7.75461 1.43362 7.75461 2.17813H18.8287C18.8287 1.43362 19.4484 0.830078 20.2129 0.830078C20.9774 0.830078 21.5972 1.43362 21.5972 2.17813H22.9815C23.7157 2.17813 24.4199 2.46219 24.9391 2.96781C25.4583 3.47343 25.75 4.15919 25.75 4.87424V22.399C25.75 23.114 25.4583 23.7998 24.9391 24.3054C24.4199 24.811 23.7157 25.0951 22.9815 25.0951H3.60183C2.86757 25.0951 2.16339 24.811 1.64419 24.3054C1.125 23.7998 0.833313 23.114 0.833313 22.399V4.87424C0.833313 4.15919 1.125 3.47343 1.64419 2.96781C2.16339 2.46219 2.86757 2.17813 3.60183 2.17813H4.98609C4.98609 1.43362 5.60584 0.830078 6.37035 0.830078ZM4.98609 22.399C4.33354 22.399 4.00727 22.399 3.80455 22.2015C3.60183 22.0041 3.60183 21.6864 3.60183 21.0509V10.2665H22.9815V21.0509C22.9815 21.6864 22.9815 22.0041 22.7787 22.2015C22.576 22.399 22.2497 22.399 21.5972 22.399H4.98609ZM22.9815 7.57036H3.60183C3.60183 5.54827 3.60183 4.87424 4.98609 4.87424H21.5972C22.9815 4.87424 22.9815 5.54827 22.9815 7.57036Z" fill="white"/>
<path d="M4.98609 12.2885C4.98609 11.9163 5.29597 11.6145 5.67822 11.6145H7.75461C8.13686 11.6145 8.44674 11.9163 8.44674 12.2885V14.3106C8.44674 14.6829 8.13686 14.9847 7.75461 14.9847H5.67822C5.29597 14.9847 4.98609 14.6829 4.98609 14.3106V12.2885Z" fill="white"/>
</svg>
