<svg width="26" height="25" viewBox="0 0 26 25" fill="none" xmlns="http://www.w3.org/2000/svg">
<path d="M25.0061 9.59869L17.1177 2.02914C16.1414 1.09515 14.8189 0.570679 13.4402 0.570679C12.0616 0.570679 10.7391 1.09515 9.76281 2.02914L1.87441 9.59869C1.58365 9.87588 1.35313 10.2057 1.19621 10.569C1.03928 10.9323 0.959081 11.3218 0.960248 11.7151V21.5108C0.960248 22.3047 1.28896 23.0662 1.87408 23.6275C2.45919 24.1889 3.25277 24.5043 4.08025 24.5043H22.8002C23.6277 24.5043 24.4213 24.1889 25.0064 23.6275C25.5915 23.0662 25.9202 22.3047 25.9202 21.5108V11.7151C25.9214 11.3218 25.8412 10.9323 25.6843 10.569C25.5274 10.2057 25.2968 9.87588 25.0061 9.59869ZM16.5602 22.5087H10.3202V18.5832C10.3202 17.7893 10.649 17.0278 11.2341 16.4665C11.8192 15.9051 12.6128 15.5897 13.4402 15.5897C14.2677 15.5897 15.0613 15.9051 15.6464 16.4665C16.2315 17.0278 16.5602 17.7893 16.5602 18.5832V22.5087ZM23.8403 21.5108C23.8403 21.7755 23.7307 22.0293 23.5356 22.2164C23.3406 22.4035 23.0761 22.5087 22.8002 22.5087H18.6402V18.5832C18.6402 17.26 18.0924 15.991 17.1172 15.0553C16.142 14.1197 14.8194 13.594 13.4402 13.594C12.0611 13.594 10.7385 14.1197 9.76329 15.0553C8.7881 15.991 8.24025 17.26 8.24025 18.5832V22.5087H4.08025C3.80442 22.5087 3.5399 22.4035 3.34486 22.2164C3.14982 22.0293 3.04025 21.7755 3.04025 21.5108V11.7151C3.04121 11.4507 3.15069 11.1972 3.34497 11.0096L11.2334 3.44307C11.8196 2.88321 12.6131 2.56891 13.4402 2.56891C14.2674 2.56891 15.0609 2.88321 15.6471 3.44307L23.5355 11.0126C23.7291 11.1995 23.8385 11.4517 23.8403 11.7151V21.5108Z" fill="#1F1E49"/>
</svg>
