<svg width="27" height="28" viewBox="0 0 27 28" fill="none" xmlns="http://www.w3.org/2000/svg">
<path d="M13.5417 26.1503C20.4223 26.1503 26 20.7183 26 14.0178C26 7.31716 20.4223 1.88525 13.5417 1.88525C6.66116 1.88525 1.08337 7.31716 1.08337 14.0178C1.08337 20.7183 6.66116 26.1503 13.5417 26.1503Z" stroke="white" stroke-width="2"/>
<path d="M6.56506 22.8881C10.0832 19.2996 16.5886 19.1306 20.1446 22.8881M17.1196 11.8678C17.1196 13.8966 15.4283 15.5412 13.342 15.5412C11.2559 15.5412 9.5646 13.8966 9.5646 11.8678C9.5646 9.839 11.2559 8.19434 13.342 8.19434C15.4283 8.19434 17.1196 9.839 17.1196 11.8678Z" stroke="white" stroke-width="2" stroke-linecap="round"/>
</svg>
