<svg width="27" height="29" viewBox="0 0 27 29" fill="none" xmlns="http://www.w3.org/2000/svg">
<path d="M12.6042 0.719971C10.3605 0.719971 8.54182 2.4871 8.54169 4.67622V6.07739H7.18752C5.94913 6.02886 4.04843 6.81669 3.33654 8.75617L1.77085 8.71489C1.02295 8.71489 0.416552 9.30398 0.416687 10.0336C0.416687 10.7633 1.02295 11.3531 1.77085 11.3531H3.12502V12.6718H1.77085C1.02295 12.6718 0.416552 13.26 0.416687 13.9906C0.416687 14.7198 1.02295 15.308 1.77085 15.3093H3.12502V16.6281H1.77085C1.02295 16.6281 0.416552 17.2162 0.416687 17.9468C0.416687 18.6761 1.02295 19.2656 1.77085 19.2656H3.12502V20.5843H1.77085C1.02295 20.5843 0.416552 21.1725 0.416687 21.9031C0.416687 22.6323 1.02295 23.2218 1.77085 23.2218H3.12502C3.12502 25.4057 4.9438 27.178 7.18752 27.178H16.6667C18.9104 27.178 20.7292 25.4057 20.7292 23.2218V21.9031L22.0833 21.8608C24.3271 21.8608 26.1457 20.0937 26.1458 17.9046V4.67622C26.1458 2.48723 24.3269 0.719707 22.0833 0.719971H12.6042ZM22.0833 3.35747C22.8313 3.35747 23.4376 3.94656 23.4375 4.67622V17.8637C23.4375 18.593 22.8313 19.1825 22.0833 19.1825L20.7292 19.2233V10.0336C20.7292 7.8486 18.9104 6.07739 16.6667 6.07739H11.25V4.7175C11.25 3.98784 11.8563 3.39862 12.6042 3.39875L22.0833 3.35747Z" fill="#F5F8FA"/>
<path d="M2.58334 21.5034C2.58334 24.6366 2.58334 26.2032 3.59474 27.1765C4.60614 28.1499 6.23396 28.1499 9.48959 28.1499H14.0938C17.3494 28.1499 18.9772 28.1499 19.9886 27.1765C21 26.2032 21 24.6366 21 21.5034V15.9646C21 14.9202 21 14.398 20.6629 14.0736C20.3257 13.7491 19.7831 13.7491 18.6979 13.7491V21.5034C18.6979 23.5922 18.6979 24.6366 18.0237 25.2855C17.3494 25.9344 16.2642 25.9344 14.0938 25.9344H9.48959C7.31917 25.9344 6.23396 25.9344 5.55969 25.2855C4.88543 24.6366 4.88543 23.5922 4.88543 21.5034V12.6414C4.88543 10.5526 4.88543 9.50818 5.55969 8.85928C6.23396 8.21037 7.31917 8.21037 9.48959 8.21037H12.9427C12.9427 7.16598 12.9427 6.64378 12.6056 6.31933C12.2685 5.99487 11.7258 5.99487 10.6406 5.99487H9.48959C6.23396 5.99487 4.60614 5.99487 3.59474 6.96823C2.58334 7.94159 2.58334 9.50818 2.58334 12.6414V21.5034Z" fill="#254066"/>
<path d="M19.3327 11.5336C20.0423 11.5336 20.3971 11.5336 20.4854 11.3285C20.5737 11.1233 20.3228 10.8819 19.821 10.399L16.4238 7.1295C15.922 6.64662 15.6711 6.40517 15.458 6.49015C15.2448 6.57512 15.2448 6.91658 15.2448 7.59948V9.31812C15.2448 10.3625 15.2448 10.8847 15.5819 11.2092C15.9191 11.5336 16.4617 11.5336 17.5469 11.5336H19.3327Z" fill="#254066"/>
<path fill-rule="evenodd" clip-rule="evenodd" d="M13.617 13.1002C14.2912 13.7491 15.3765 13.7491 17.5469 13.7491H18.6979V21.5034C18.6979 23.5922 18.6979 24.6366 18.0237 25.2855C17.3494 25.9344 16.2642 25.9344 14.0938 25.9344H9.48959C7.31917 25.9344 6.23396 25.9344 5.55969 25.2855C4.88543 24.6366 4.88543 23.5922 4.88543 21.5034V12.6414C4.88543 10.5526 4.88543 9.50818 5.55969 8.85928C6.23396 8.21037 7.31917 8.21037 9.48959 8.21037H12.9427V9.31812C12.9427 11.4069 12.9427 12.4513 13.617 13.1002ZM7.18751 15.4107C6.55181 15.4107 6.03647 15.9067 6.03647 16.5185C6.03647 17.1303 6.55181 17.6262 7.18751 17.6262H16.3958C17.0315 17.6262 17.5469 17.1303 17.5469 16.5185C17.5469 15.9067 17.0315 15.4107 16.3958 15.4107H7.18751ZM6.03647 19.8417C6.03647 19.23 6.55181 18.734 7.18751 18.734H16.3958C17.0315 18.734 17.5469 19.23 17.5469 19.8417C17.5469 20.4535 17.0315 20.9495 16.3958 20.9495H7.18751C6.55181 20.9495 6.03647 20.4535 6.03647 19.8417ZM7.18751 22.0572C6.55181 22.0572 6.03647 22.5532 6.03647 23.165C6.03647 23.7768 6.55181 24.2727 7.18751 24.2727H16.3958C17.0315 24.2727 17.5469 23.7768 17.5469 23.165C17.5469 22.5532 17.0315 22.0572 16.3958 22.0572H7.18751Z" fill="#254066"/>
</svg>
